<svg  width="200" height="100" viewBox="0 100 1000 31" fill="none" xmlns="http://www.w3.org/2000/svg">

<g transform="translate(0.000000,199.000000) scale(0.100000,-0.100000)"
fill="#000000" stroke="none">
<path d="M2740 1830 c-188 -31 -347 -144 -434 -310 -113 -215 -78 -498 84
-683 182 -207 546 -258 776 -109 150 97 254 291 254 474 l0 48 -285 0 -285 0
0 -105 0 -105 160 0 161 0 -16 -30 c-48 -92 -140 -148 -260 -157 -128 -10
-240 31 -327 118 -188 188 -131 502 112 618 49 23 67 26 170 26 108 0 119 -2
180 -31 36 -17 86 -50 111 -72 l46 -41 77 78 78 78 -59 52 c-66 58 -170 114
-257 136 -75 19 -216 26 -286 15z"/>
<path d="M9543 1830 c-170 -36 -275 -196 -229 -352 22 -75 77 -149 176 -236
47 -41 116 -102 154 -135 74 -65 106 -109 106 -145 0 -67 -69 -118 -146 -109
-53 6 -102 41 -144 102 l-30 44 -78 -46 c-114 -68 -111 -62 -67 -127 49 -74
115 -131 179 -155 165 -62 345 -20 437 103 49 64 63 117 57 214 -8 131 -44
179 -312 411 -141 122 -161 170 -92 212 57 35 125 16 191 -55 l41 -44 76 66
c42 37 77 72 77 79 2 21 -112 115 -174 144 -67 31 -156 43 -222 29z"/>
<path d="M10 1239 l0 -571 223 4 c274 6 304 13 387 96 93 93 125 225 84 345
-18 54 -79 126 -132 158 -20 12 -38 23 -40 24 -1 1 16 20 37 43 97 102 92 269
-11 371 -74 75 -180 100 -415 101 l-133 0 0 -571z m355 347 c83 -35 85 -160 4
-202 -17 -8 -55 -18 -85 -21 l-54 -6 0 122 0 121 50 0 c28 0 66 -6 85 -14z m5
-427 c109 -23 166 -116 125 -203 -24 -51 -65 -68 -172 -74 l-93 -5 0 147 0
146 45 0 c24 0 67 -5 95 -11z"/>
<path d="M940 1240 l0 -570 110 0 110 0 0 241 c0 169 3 240 11 237 6 -2 68
-110 137 -241 l126 -237 118 0 118 0 -24 48 c-13 26 -72 137 -130 246 -58 110
-106 202 -106 205 0 3 20 17 44 30 91 48 139 114 158 221 27 142 -39 288 -155
344 -67 33 -163 45 -359 46 l-158 0 0 -570z m380 347 c85 -23 117 -124 58
-183 -25 -25 -100 -44 -174 -44 l-44 0 0 120 0 120 58 -1 c31 0 77 -6 102 -12z"/>
<path d="M1830 1240 l0 -570 110 0 110 0 0 570 0 570 -110 0 -110 0 0 -570z"/>
<path d="M3620 1240 l0 -570 110 0 110 0 0 250 0 250 188 -2 187 -3 3 -247 2
-248 105 0 105 0 0 570 0 570 -105 0 -105 0 0 -215 0 -215 -190 0 -190 0 0
215 0 215 -110 0 -110 0 0 -570z"/>
<path d="M4580 1700 l0 -110 100 0 100 0 0 -460 0 -460 110 0 110 0 0 460 0
460 105 0 105 0 0 110 0 110 -315 0 -315 0 0 -110z"/>
<path d="M5790 1240 l0 -570 105 0 105 0 0 570 0 570 -105 0 -105 0 0 -570z"/>
<path d="M6250 1240 l0 -573 243 6 c160 4 261 10 299 20 157 39 285 176 334
357 23 87 24 262 1 350 -27 104 -75 188 -147 261 -115 116 -193 138 -507 146
l-223 6 0 -573z m474 330 c79 -30 145 -96 176 -176 31 -78 34 -233 7 -311 -51
-148 -151 -203 -369 -203 l-78 0 0 361 0 362 103 -6 c71 -3 120 -12 161 -27z"/>
<path d="M7350 1240 l0 -570 310 0 310 0 0 105 0 105 -200 0 -200 0 0 150 0
150 200 0 200 0 0 105 0 105 -200 0 -200 0 0 105 0 105 200 0 200 0 0 105 0
105 -310 0 -310 0 0 -570z"/>
<path d="M8385 1453 c-76 -197 -175 -454 -220 -571 l-83 -213 116 3 115 3 41
107 c23 59 46 112 52 118 7 7 89 9 235 8 l224 -3 44 -117 44 -118 114 0 c62 0
113 1 113 3 0 1 -98 256 -218 567 l-217 565 -111 3 -111 3 -138 -358z m324
-141 c39 -101 71 -186 71 -188 0 -2 -65 -4 -145 -4 -80 0 -145 4 -145 8 0 5
32 89 70 187 39 98 70 181 70 183 0 14 14 -19 79 -186z"/>
<path d="M5151 566 c-17 -20 -4 -56 18 -56 28 0 47 28 34 48 -14 23 -37 26
-52 8z"/>
<path d="M6602 571 c-21 -13 -11 -55 15 -59 30 -4 49 31 27 52 -18 18 -24 19
-42 7z"/>
<path d="M6367 563 c-4 -3 -7 -33 -7 -65 0 -58 0 -58 -30 -58 -23 0 -30 -4
-30 -20 0 -16 7 -20 30 -20 l30 0 0 -150 0 -150 25 0 25 0 0 150 0 150 35 0
c28 0 35 4 35 20 0 16 -7 20 -35 20 l-35 0 0 65 c0 56 -2 65 -18 65 -10 0 -22
-3 -25 -7z"/>
<path d="M2064 431 c-23 -10 -54 -36 -70 -57 -25 -33 -29 -46 -29 -104 0 -57
4 -72 28 -103 39 -52 81 -71 152 -71 60 0 106 16 139 49 37 37 -3 56 -45 21
-42 -36 -98 -42 -154 -17 -37 16 -50 29 -66 66 -34 76 -3 150 75 180 55 21
103 14 145 -20 17 -15 36 -23 45 -19 23 9 20 21 -10 49 -50 47 -141 57 -210
26z"/>
<path d="M2534 431 c-107 -49 -133 -202 -48 -287 85 -84 227 -61 282 46 27 53
28 101 3 155 -22 48 -44 69 -94 90 -48 20 -93 19 -143 -4z m119 -35 c53 -22
87 -70 87 -123 0 -80 -54 -136 -131 -136 -46 0 -83 23 -109 66 -45 73 -6 172
76 197 40 12 41 12 77 -4z"/>
<path d="M3050 443 c-8 -3 -27 -15 -42 -25 -28 -19 -28 -19 -28 1 0 16 -6 21
-25 21 l-25 0 0 -170 0 -170 25 0 25 0 0 113 c0 93 3 117 19 143 26 43 79 61
119 40 16 -8 32 -23 36 -31 3 -9 6 -73 6 -141 l0 -124 25 0 25 0 0 105 c0 129
14 169 65 191 20 8 46 12 60 8 47 -12 55 -37 55 -176 l0 -128 25 0 25 0 0 120
c0 87 -4 131 -16 160 -18 44 -55 70 -99 70 -36 0 -93 -28 -106 -51 -13 -24
-26 -24 -34 0 -11 35 -90 61 -135 44z"/>
<path d="M3695 435 c-16 -9 -36 -23 -42 -32 -11 -15 -13 -14 -13 10 0 22 -5
27 -25 27 l-25 0 0 -170 0 -170 24 0 c24 0 24 1 28 120 3 120 3 120 35 152 41
41 95 45 124 9 16 -20 19 -41 19 -152 l0 -129 24 0 c24 0 24 1 28 120 3 120 3
120 35 152 40 39 92 44 125 11 19 -19 22 -36 26 -152 4 -120 6 -131 23 -131
18 0 19 10 19 125 0 145 -11 185 -61 210 -47 25 -103 15 -146 -27 -28 -27 -35
-30 -43 -18 -5 8 -10 18 -10 22 0 13 -58 38 -87 38 -15 0 -41 -7 -58 -15z"/>
<path d="M4815 434 c-16 -8 -38 -23 -47 -31 -17 -15 -18 -14 -18 10 0 20 -5
27 -20 27 -19 0 -20 -7 -20 -170 0 -163 1 -170 20 -170 19 0 20 7 20 100 0
118 14 161 62 190 59 36 110 22 134 -35 9 -23 14 -72 14 -145 0 -103 1 -110
20 -110 19 0 20 7 20 126 0 145 -12 183 -65 208 -42 20 -82 20 -120 0z"/>
<path d="M5434 425 c-76 -38 -111 -112 -92 -198 27 -127 203 -179 308 -90 28
23 30 27 16 41 -14 14 -17 14 -34 -1 -33 -30 -92 -49 -133 -42 -122 21 -160
168 -63 244 52 41 129 36 189 -11 21 -16 28 -18 41 -8 13 11 12 15 -3 33 -27
29 -92 57 -139 57 -23 0 -61 -10 -90 -25z"/>
<path d="M5915 432 c-48 -23 -69 -45 -90 -95 -20 -48 -19 -93 4 -143 45 -100
163 -132 255 -69 l36 24 0 -24 c0 -18 5 -25 20 -25 19 0 20 7 20 170 0 163 -1
170 -20 170 -15 0 -20 -7 -20 -26 l0 -25 -35 27 c-47 36 -115 42 -170 16z
m125 -38 c50 -20 80 -67 80 -125 0 -61 -28 -103 -83 -124 -57 -22 -103 -9
-147 41 -59 67 -32 172 55 210 39 17 47 17 95 -2z"/>
<path d="M6905 443 c-36 -9 -87 -55 -106 -97 -59 -130 46 -274 184 -252 91 15
147 82 147 176 0 122 -104 202 -225 173z m87 -43 c64 -18 111 -99 94 -164 -10
-41 -55 -85 -97 -96 -33 -9 -47 -8 -83 9 -53 23 -76 61 -76 125 0 51 34 100
85 122 37 16 32 16 77 4z"/>
<path d="M7385 434 c-16 -8 -38 -23 -47 -31 -17 -15 -18 -14 -18 10 0 20 -5
27 -20 27 -19 0 -20 -7 -20 -170 0 -163 1 -170 20 -170 19 0 20 7 20 98 0 74
5 107 19 139 33 71 106 94 158 49 28 -24 28 -26 31 -155 3 -121 5 -131 23
-131 18 0 19 8 19 131 0 147 -10 177 -66 204 -41 19 -81 19 -119 -1z"/>
<path d="M7765 440 c-27 -10 -41 -28 -49 -62 -9 -40 9 -74 56 -105 94 -60 108
-86 61 -122 -28 -23 -54 -21 -86 7 -16 14 -19 14 -35 -2 -16 -16 -16 -18 8
-36 75 -58 180 -17 180 70 0 47 -15 67 -76 101 -62 36 -80 59 -64 88 15 29 45
34 84 16 59 -28 78 2 24 35 -35 21 -69 24 -103 10z"/>
<path d="M4251 311 c4 -112 7 -133 25 -158 32 -44 81 -65 138 -59 103 11 128
52 134 224 l4 122 -26 0 -26 0 0 -121 c0 -120 0 -121 -29 -150 -24 -23 -38
-29 -74 -29 -84 0 -106 43 -107 208 0 87 -1 92 -21 92 -20 0 -21 -3 -18 -129z"/>
<path d="M5150 270 l0 -170 25 0 25 0 0 170 0 170 -25 0 -25 0 0 -170z"/>
<path d="M6600 270 c0 -163 1 -170 20 -170 19 0 20 7 20 170 0 163 -1 170 -20
170 -19 0 -20 -7 -20 -170z"/>
</g>
</svg>
