<svg width="220" height="100" viewBox="0 100 1000 31" fill="none" xmlns="http://www.w3.org/2000/svg">

<g transform="translate(0.000000,153.000000) scale(0.100000,-0.100000)"
fill="#000000" stroke="none">
<path d="M709 1437 c-50 -27 -89 -85 -89 -134 0 -28 -5 -35 -35 -47 -50 -21
-75 -68 -75 -142 0 -34 -7 -78 -15 -97 -31 -75 -14 -163 40 -205 19 -15 25
-29 25 -60 0 -46 32 -92 78 -111 18 -8 35 -27 46 -51 9 -22 35 -55 57 -73 l39
-34 0 -101 0 -102 125 0 125 0 0 498 c0 302 -4 511 -10 533 -27 96 -100 149
-206 149 -44 0 -73 -6 -105 -23z m208 -43 c16 -11 38 -40 51 -64 21 -42 22
-55 22 -296 0 -237 -1 -252 -20 -269 -26 -23 -45 -14 -60 29 -13 42 -40 49
-40 11 0 -62 48 -106 100 -92 19 5 20 0 20 -194 l0 -199 -85 0 -85 0 0 80 0
80 34 0 c46 0 86 16 86 35 0 13 -11 14 -68 9 -64 -6 -69 -5 -100 21 -18 15
-40 41 -48 58 -21 40 -13 111 15 141 24 25 28 56 7 56 -20 0 -63 -54 -71 -90
-4 -16 -12 -30 -18 -30 -20 0 -57 43 -57 67 0 20 5 23 35 23 51 0 44 22 -14
43 -66 23 -101 65 -101 120 0 56 28 109 67 127 34 16 43 37 19 46 -8 3 -24 1
-35 -6 -20 -10 -21 -8 -21 30 0 30 7 47 25 65 31 32 40 31 55 -5 19 -46 49
-80 71 -80 23 0 25 23 3 41 -47 39 -62 141 -28 199 30 51 77 72 151 68 43 -3
72 -10 90 -24z"/>
<path d="M781 1336 c-45 -25 -71 -106 -33 -106 12 0 21 11 27 32 7 22 19 36
38 43 37 12 61 -3 65 -44 2 -23 8 -31 23 -31 15 0 19 7 19 35 0 69 -74 107
-139 71z"/>
<path d="M784 1164 c-51 -25 -68 -87 -40 -143 15 -28 61 -56 77 -46 17 11 9
32 -15 43 -52 23 -46 93 9 113 22 8 35 20 35 31 0 22 -24 23 -66 2z"/>
<path d="M606 999 c-19 -15 -26 -30 -26 -53 0 -36 33 -86 56 -86 18 0 18 16
-2 50 -20 32 -13 60 16 67 26 7 27 43 1 43 -10 0 -30 -9 -45 -21z"/>
<path d="M897 984 c-4 -4 -7 -20 -7 -36 0 -33 -31 -68 -60 -68 -30 0 -78 27
-90 50 -14 26 -40 26 -40 -1 0 -33 55 -77 105 -84 77 -12 128 31 123 104 -3
33 -17 49 -31 35z"/>
<path d="M791 699 c-16 -45 -14 -63 10 -93 24 -30 72 -35 107 -10 43 30 17 60
-28 32 -15 -10 -24 -10 -38 -2 -18 12 -20 31 -7 77 6 23 4 27 -13 27 -13 0
-24 -10 -31 -31z"/>
<path d="M3754 1316 c-284 -69 -383 -427 -178 -646 57 -61 126 -96 220 -111
84 -14 171 -2 240 32 103 50 183 171 192 291 l5 68 -187 0 -186 0 0 -70 0 -69
107 -3 108 -3 -38 -42 c-116 -127 -343 -81 -412 84 -20 46 -19 144 1 191 65
156 287 201 416 84 l39 -35 52 52 52 52 -35 30 c-111 95 -255 129 -396 95z"/>
<path d="M8176 1316 c-109 -41 -156 -158 -105 -259 12 -23 51 -69 88 -102 194
-178 204 -193 156 -240 -40 -41 -88 -35 -143 20 -24 25 -46 45 -48 45 -13 0
-104 -66 -104 -75 0 -7 16 -33 35 -57 48 -64 110 -92 200 -92 86 0 144 28 190
92 26 38 30 52 30 110 -1 101 -14 120 -199 286 -73 65 -87 83 -84 105 6 53 87
54 140 0 l30 -29 37 29 c67 54 69 57 30 97 -68 71 -172 100 -253 70z"/>
<path d="M2020 940 l0 -372 153 4 c140 3 156 5 197 28 64 36 103 96 108 169 7
91 -24 145 -117 208 -2 1 10 18 27 37 74 84 41 215 -66 267 -40 20 -67 24
-174 27 l-128 4 0 -372z m212 230 c40 -12 58 -34 58 -73 0 -41 -30 -68 -83
-74 l-47 -6 0 82 c0 90 0 91 72 71z m58 -295 c52 -27 67 -92 31 -136 -16 -19
-30 -24 -90 -27 l-71 -4 0 91 0 91 50 0 c28 0 64 -7 80 -15z"/>
<path d="M2620 940 l0 -370 70 0 70 0 0 156 c0 108 3 155 11 152 6 -2 47 -72
91 -156 l81 -152 79 0 79 0 -29 53 c-16 28 -56 101 -87 161 -54 102 -57 111
-40 120 41 24 89 73 101 103 20 47 17 140 -5 189 -40 87 -112 114 -307 114
l-114 0 0 -370z m277 215 c26 -18 36 -56 23 -89 -11 -29 -66 -49 -120 -44
l-35 3 -3 73 -3 72 58 0 c35 0 67 -6 80 -15z"/>
<path d="M3200 940 l0 -370 70 0 70 0 0 370 0 370 -70 0 -70 0 0 -370z"/>
<path d="M4360 940 l0 -370 70 0 70 0 2 163 3 162 120 0 120 0 3 -162 2 -163
70 0 70 0 0 370 0 370 -70 0 -70 0 0 -140 0 -140 -125 0 -125 0 0 140 0 140
-70 0 -70 0 0 -370z"/>
<path d="M4990 1240 l0 -70 65 0 65 0 0 -300 0 -300 70 0 70 0 0 300 0 300 65
0 65 0 0 70 0 70 -200 0 -200 0 0 -70z"/>
<path d="M5770 940 l0 -370 70 0 70 0 0 370 0 370 -70 0 -70 0 0 -370z"/>
<path d="M6070 939 l0 -372 168 6 c177 5 213 13 277 59 164 116 181 431 31
581 -74 75 -157 97 -358 97 l-118 0 0 -371z m292 221 c49 -14 94 -52 120 -104
31 -58 31 -184 1 -241 -42 -80 -92 -105 -209 -105 l-74 0 0 230 0 230 63 0
c34 0 79 -5 99 -10z"/>
<path d="M6780 940 l0 -370 205 0 205 0 0 70 0 70 -135 0 -135 0 0 95 0 94
133 3 132 3 3 68 3 67 -136 0 -135 0 0 65 0 65 135 0 135 0 0 70 0 70 -205 0
-205 0 0 -370z"/>
<path d="M7540 1307 c0 -2 -63 -167 -140 -366 -77 -200 -140 -365 -140 -367 0
-2 33 -4 73 -4 l72 0 29 75 29 75 152 0 152 0 28 -75 27 -75 75 0 c41 0 73 4
71 9 -1 4 -66 171 -142 370 l-139 361 -74 0 c-40 0 -73 -1 -73 -3z m127 -328
c23 -61 43 -112 43 -115 0 -2 -43 -4 -95 -4 -52 0 -95 2 -95 5 0 2 17 49 38
102 22 54 42 107 46 117 3 10 9 16 13 13 3 -4 26 -57 50 -118z"/>
<path d="M5350 490 c0 -13 7 -20 20 -20 13 0 20 7 20 20 0 13 -7 20 -20 20
-13 0 -20 -7 -20 -20z"/>
<path d="M6290 490 c0 -13 7 -20 20 -20 13 0 20 7 20 20 0 13 -7 20 -20 20
-13 0 -20 -7 -20 -20z"/>
<path d="M6140 460 c0 -33 -3 -40 -20 -40 -11 0 -20 -4 -20 -10 0 -5 9 -10 20
-10 19 0 20 -7 20 -100 0 -81 3 -100 15 -100 11 0 15 20 17 98 3 92 4 97 26
100 30 5 28 22 -3 22 -22 0 -25 4 -25 40 0 29 -4 40 -15 40 -11 0 -15 -11 -15
-40z"/>
<path d="M3350 412 c-50 -25 -76 -81 -61 -132 16 -53 56 -80 119 -80 35 0 57
6 76 21 40 31 18 45 -27 19 -46 -28 -87 -20 -123 23 -20 24 -24 37 -20 61 13
67 95 98 148 57 31 -25 58 -13 32 13 -38 39 -90 45 -144 18z"/>
<path d="M3653 414 c-33 -16 -63 -66 -63 -104 0 -29 26 -76 52 -94 30 -21 107
-20 134 2 65 52 56 160 -16 197 -37 19 -67 19 -107 -1z m106 -40 c76 -64 -2
-184 -90 -139 -55 29 -62 105 -12 145 35 27 65 25 102 -6z"/>
<path d="M3990 423 c-8 -3 -23 -12 -32 -21 -16 -14 -18 -13 -18 1 0 10 -4 17
-10 17 -6 0 -10 -43 -10 -110 0 -67 4 -110 10 -110 6 0 10 24 10 53 0 105 31
156 85 143 29 -7 45 -56 45 -138 0 -32 4 -58 10 -58 6 0 10 24 10 53 0 105 31
156 85 143 29 -7 45 -56 45 -138 0 -32 4 -58 10 -58 6 0 10 38 10 94 0 91 -1
95 -27 116 -31 24 -74 22 -104 -6 -17 -15 -20 -15 -45 5 -27 21 -45 24 -74 14z"/>
<path d="M4405 414 c-19 -10 -31 -11 -33 -5 -2 6 -10 11 -18 11 -11 0 -14 -22
-14 -110 0 -91 3 -110 15 -110 12 0 15 13 15 59 0 93 25 141 74 141 34 0 46
-29 46 -116 0 -68 3 -84 15 -84 12 0 15 13 15 59 0 93 25 141 74 141 34 0 46
-29 46 -116 0 -68 3 -84 15 -84 12 0 15 17 15 94 0 91 -1 95 -27 116 -31 24
-74 22 -104 -6 -17 -15 -20 -15 -45 5 -32 25 -49 26 -89 5z"/>
<path d="M5128 414 c-16 -8 -28 -10 -28 -4 0 5 -7 10 -15 10 -12 0 -15 -19
-15 -110 0 -91 3 -110 15 -110 12 0 15 15 15 78 0 69 3 81 23 100 13 12 35 22
50 22 42 0 57 -33 57 -122 0 -63 3 -78 15 -78 12 0 15 16 15 80 0 89 -11 123
-47 139 -32 14 -52 13 -85 -5z"/>
<path d="M5545 416 c-37 -16 -53 -35 -65 -75 -12 -43 5 -96 39 -121 40 -28
119 -28 155 1 40 31 18 45 -27 19 -43 -25 -84 -21 -115 13 -30 33 -35 62 -17
96 27 53 91 68 137 32 31 -25 58 -13 32 13 -36 36 -88 44 -139 22z"/>
<path d="M5855 420 c-29 -12 -61 -51 -69 -84 -9 -38 10 -91 41 -116 31 -24 99
-27 131 -4 20 14 22 14 22 0 0 -9 7 -16 15 -16 12 0 15 19 15 110 0 88 -3 110
-14 110 -8 0 -16 -5 -18 -11 -2 -6 -14 -5 -33 5 -33 17 -59 19 -90 6z m100
-44 c33 -33 40 -67 21 -104 -33 -63 -119 -63 -152 0 -43 84 65 169 131 104z"/>
<path d="M6490 423 c-28 -10 -69 -56 -75 -84 -9 -39 11 -94 42 -119 17 -14 40
-20 72 -20 70 1 111 42 111 115 0 77 -79 134 -150 108z m89 -49 c76 -64 -2
-184 -90 -139 -55 29 -62 105 -12 145 35 27 65 25 102 -6z"/>
<path d="M6793 410 c-27 -16 -33 -17 -33 -5 0 8 -4 15 -10 15 -6 0 -10 -43
-10 -110 0 -125 15 -148 22 -35 6 87 30 125 79 125 44 0 59 -32 59 -122 0 -65
3 -78 16 -78 14 0 15 13 12 91 -3 85 -5 92 -31 115 -34 29 -62 30 -104 4z"/>
<path d="M7042 414 c-38 -26 -27 -72 26 -107 46 -31 54 -60 21 -77 -16 -9 -26
-8 -44 4 -27 18 -44 4 -25 -19 18 -22 83 -19 104 4 29 32 17 71 -31 104 -45
30 -56 62 -27 74 9 3 26 1 37 -6 29 -19 45 3 16 23 -29 20 -48 20 -77 0z"/>
<path d="M4770 345 c0 -79 16 -127 45 -139 39 -15 96 -6 120 19 23 22 25 32
25 110 0 69 -3 85 -15 85 -12 0 -15 -15 -15 -77 0 -43 -4 -83 -8 -89 -13 -19
-50 -34 -69 -27 -45 16 -53 33 -53 115 0 63 -3 78 -15 78 -12 0 -15 -15 -15
-75z"/>
<path d="M5360 310 c0 -67 4 -110 10 -110 6 0 10 43 10 110 0 67 -4 110 -10
110 -6 0 -10 -43 -10 -110z"/>
<path d="M6300 310 c0 -67 4 -110 10 -110 6 0 10 43 10 110 0 67 -4 110 -10
110 -6 0 -10 -43 -10 -110z"/>
<path d="M963 113 c54 -2 139 -2 190 0 51 1 7 3 -98 3 -104 0 -146 -2 -92 -3z"/>
<path d="M957 53 c51 -2 135 -2 185 0 51 1 10 3 -92 3 -102 0 -143 -2 -93 -3z"/>
</g>
</svg>
