<svg width="34" height="31" viewBox="0 0 34 31" fill="none" xmlns="http://www.w3.org/2000/svg" xmlns:xlink="http://www.w3.org/1999/xlink" viewBox="0 0 515.18 490.01">
  <defs>
    <style>
      .cls-1 {
        fill: #ffc72a;
      }

      .cls-2 {
        fill: #ffc116;
      }

      .cls-3 {
        clip-path: url(#clippath-2);
      }

      .cls-4 {
        clip-path: url(#clippath-1);
      }

      .cls-5 {
        fill: #606161;
      }

      .cls-6 {
        clip-path: url(#clippath);
      }

      .cls-7 {
        fill: none;
      }

      .cls-8 {
        clip-path: url(#clippath-3);
      }
    </style>
    <clipPath id="clippath">
      <path class="cls-7" d="M366.47,392.24h-.02c-2.46,0-4.45-2.01-4.44-4.47,0-.56,.24-56.46,2.35-96.02,.13-2.39,.37-4.72,.72-6.96-6.56-.03-12.03-.48-14.57-.74-2.45-.24-4.24-2.43-3.99-4.88,.25-2.45,2.41-4.27,4.88-3.99,4.82,.48,10.3,.74,15.78,.59,3.35-10.43,9.41-18.3,17.4-22.13,6.13-2.94,12.44-2.84,16.86,.36,3.83,2.75,5.65,7.47,4.97,12.93-1.55,12.56-17.54,16.58-32.25,17.58-.44,2.39-.75,4.95-.9,7.71-2.1,39.34-2.34,95.03-2.34,95.59,0,2.45-2,4.44-4.46,4.44Zm26.87-131.8c-1.47,0-3.18,.42-4.9,1.24-4.11,1.97-8.51,6.36-11.53,13.51,10.97-1.15,20.01-4.02,20.67-9.37,.19-1.52,.11-3.56-1.33-4.6-.74-.53-1.75-.79-2.9-.79Z"/>
    </clipPath>
    <clipPath id="clippath-1">
      <path class="cls-7" d="M423.71,400.7h-82.4V16.84h6.87c92.09,0,167,74.92,167,167,0,62.66-35.76,120.62-91.47,148.89v67.96Zm-68.67-13.73h54.93v-62.85l3.92-1.86c53.18-25.23,87.55-79.57,87.55-138.41,0-82.21-65.06-149.51-146.4-153.12V386.97Z"/>
    </clipPath>
    <clipPath id="clippath-2">
      <path class="cls-7" d="M483.83,191.64c-3.6,0-6.63-2.81-6.85-6.46-6.8-113.13-104.11-129.41-108.25-130.05-3.75-.58-6.32-4.08-5.75-7.82,.57-3.75,4.02-6.29,7.81-5.76,1.12,.17,112.42,18.38,119.89,142.81,.23,3.78-2.66,7.03-6.44,7.26-.13,0-.27,.01-.42,.01Z"/>
    </clipPath>
    <clipPath id="clippath-3">
      <path class="cls-7" d="M296.18,490.01c-.85,0-10.29-.15-16.97-6.77-4.24-4.2-6.39-10.02-6.39-17.31v-47.95l1.47-.21c1.55-.23,95.36-.07,124.07-.02h1.72v48.61c.02,.27,.57,9.58-5.9,16.5-4.43,4.74-10.99,7.14-19.49,7.14h-78.51Zm-19.92-68.86v44.78c0,6.32,1.8,11.32,5.35,14.85,5.78,5.75,14.41,5.79,14.61,5.79h78.47c7.5,0,13.2-2.03,16.95-6.03,5.46-5.81,5.01-13.98,5.01-14.06v-45.29c-39.2-.07-108.95-.14-120.4-.04Z"/>
    </clipPath>
  </defs>
  <g id="Layer_1-2" data-name="Layer 1">
    <g>
      <line class="cls-1" x1="139.68" y1="308.06" x2="71.97" y2="372.12"/>
      <path class="cls-1" d="M145.76,308.06c0,1.61-.64,3.22-1.9,4.42l-67.72,64.06c-2.44,2.31-6.28,2.2-8.59-.24-2.31-2.44-2.2-6.28,.24-8.59l67.72-64.06c2.44-2.31,6.28-2.2,8.59,.24,1.11,1.18,1.66,2.68,1.66,4.18Z"/>
    </g>
    <path class="cls-1" d="M105.86,188.2c0,3.36-2.72,6.08-6.08,6.08H6.08c-3.36,0-6.08-2.72-6.08-6.08s2.72-6.08,6.08-6.08H99.78c3.36,0,6.08,2.72,6.08,6.08Z"/>
    <g>
      <line class="cls-1" x1="139.68" y1="68.31" x2="74.53" y2="6.08"/>
      <path class="cls-1" d="M145.76,68.31c0,1.51-.56,3.02-1.68,4.2-2.32,2.43-6.17,2.52-8.59,.2L70.33,10.47c-2.43-2.32-2.52-6.17-.2-8.59,2.32-2.43,6.17-2.52,8.59-.2l65.16,62.23c1.25,1.19,1.88,2.79,1.88,4.4Z"/>
    </g>
    <g class="cls-6">
      <rect class="cls-2" x="376.91" y="260.44" width="20.85" height="14.76"/>
      <rect class="cls-2" x="346.29" y="250.7" width=".22" height="141.54"/>
      <rect class="cls-2" x="346.51" y="250.7" width="60.06" height="141.54"/>
      <rect class="cls-2" x="406.56" y="250.7" width=".54" height="141.54"/>
    </g>
    <g class="cls-4">
      <rect class="cls-2" x="355.04" y="30.73" width="146.4" height="356.24"/>
      <rect class="cls-2" x="341.31" y="16.84" width="173.87" height="383.86"/>
    </g>
    <g class="cls-3">
      <rect class="cls-2" x="362.41" y="41.02" width=".5" height="150.61"/>
      <rect class="cls-2" x="362.91" y="41.02" width="127.79" height="150.61"/>
      <rect class="cls-2" x="490.7" y="41.02" width=".22" height="150.61"/>
    </g>
    <path class="cls-5" d="M329.63,400.7h-81.46v-66.92c-24.71-12.54-32.74-35.23-35.15-45.26-14.34-3.46-24.58-10.33-30.5-20.47-6.87-11.8-5.82-24.81-4.42-32-13.95-8.93-22.54-20.37-25.56-34.08-4.84-21.96,6.4-42.78,10.98-50.08-4.93-22.28-2.65-39.73,6.77-51.91,7.68-9.94,18.22-13.73,25.09-15.19,.15-10.09,2.36-29.56,15.74-44.42,11.32-12.57,27.86-18.94,49.17-18.94s37.66,6.32,49.74,18.78c20.31,20.94,19.61,51.44,19.58,52.73V400.7Zm-67.72-13.73h53.99V92.73c0-.46,.49-26.34-15.77-43.03-9.4-9.65-22.79-14.54-39.82-14.54s-30.3,4.82-38.9,14.32c-14.41,15.93-12.15,40.33-12.12,40.57l.74,7.45-7.48,.12c-.09,0-13.51,.47-21.47,10.88-7.07,9.24-8.25,23.74-3.51,43.09l.75,3.08-1.86,2.58c-.15,.21-15.06,21.21-10.47,41.84,2.47,11.1,10.34,20.42,23.38,27.68l5.05,2.82-1.9,5.45c-.04,.11-4.86,14.63,1.94,26.17,4.43,7.52,13.06,12.49,25.66,14.77l4.96,.9,.64,5.02c.15,1.19,4.04,29.2,32.05,41.21l4.16,1.78v62.08Z"/>
    <path class="cls-5" d="M224.13,136.19c-1.14,0-2.29-.28-3.35-.88-20.73-11.63-24.97-42.36-25.14-43.66-.5-3.76,2.15-7.2,5.9-7.69,3.78-.47,7.21,2.14,7.71,5.89,.03,.25,3.55,25.23,18.25,33.48,3.31,1.86,4.49,6.04,2.63,9.35-1.26,2.25-3.59,3.51-6,3.51Z"/>
    <path class="cls-5" d="M170.88,160.07c-1.76,0-3.52-.67-4.86-2.01-2.68-2.68-2.68-7.02,0-9.7,3.76-3.76,16.82-15.84,27.96-13.49,3.71,.78,6.07,4.41,5.3,8.12-.78,3.7-4.47,6.1-8.13,5.32-2.24-.45-9.99,4.35-15.43,9.76-1.34,1.33-3.09,2-4.85,2Z"/>
    <path class="cls-5" d="M208.48,245.79c-9.68,0-23.63-6.03-25.25-6.74-3.47-1.53-5.04-5.58-3.51-9.05,1.54-3.47,5.61-5.04,9.05-3.51,5.2,2.29,15.38,5.95,20.1,5.56,3.95-.27,7.01,2.71,7.22,6.5,.19,3.79-2.72,7.02-6.5,7.22-.37,.01-.74,.03-1.11,.03Z"/>
    <path class="cls-5" d="M218.87,289.58c-3.6,0-6.63-2.8-6.85-6.44-.08-1.33-1.7-32.73,23.12-49.87,3.11-2.17,7.4-1.39,9.55,1.74,2.16,3.12,1.37,7.4-1.74,9.55-18.35,12.69-17.23,37.52-17.21,37.77,.21,3.78-2.68,7.02-6.46,7.24-.13,0-.27,0-.4,0Z"/>
    <path class="cls-5" d="M268.47,337.72c-8.14,0-14.53-1.28-16.22-2.03-3.46-1.54-5.02-5.6-3.49-9.07,1.49-3.33,5.32-4.9,8.69-3.64,2.53,.68,20.54,3.19,32.97-3.92,3.28-1.88,7.49-.74,9.37,2.55,1.88,3.29,.74,7.48-2.55,9.37-9.17,5.24-19.99,6.73-28.77,6.73Z"/>
    <path class="cls-5" d="M287.7,97.62c-.37,0-.75-.03-1.13-.09-3.74-.62-6.28-4.15-5.65-7.89,.38-2.51,.58-10.05-3.16-14.42-2.37-2.76-6.15-4.11-11.55-4.11-18.78,0-20.21,17.94-20.31,20-.19,3.78-3.34,6.65-7.2,6.52-3.79-.19-6.71-3.41-6.52-7.2,.57-11.43,8.41-33.05,34.03-33.05,9.57,0,16.99,3.03,22.06,9,8.47,9.99,6.46,23.95,6.2,25.51-.56,3.36-3.47,5.75-6.77,5.75Z"/>
    <path class="cls-5" d="M258.33,178.92c-.45,0-.91-.05-1.37-.14-8.57-1.75-24.78-11.09-24.78-33.9s21.17-31.81,32.36-33.12c3.88-.46,7.18,2.27,7.62,6.02,.44,3.76-2.25,7.17-6.01,7.62-2.13,.27-20.24,3.05-20.24,19.48s12.45,20.14,13.87,20.46c3.67,.84,6.02,4.47,5.22,8.15-.69,3.22-3.51,5.43-6.67,5.43Z"/>
    <path class="cls-5" d="M202.43,215.64c-1.27,0-2.57-.36-3.72-1.1-.62-.4-15.19-10.02-15.19-27.58,0-15.57,15.37-22.59,24.46-24.28,3.69-.68,7.31,1.76,8.01,5.5,.69,3.72-1.76,7.3-5.47,8-.25,.05-13.26,2.72-13.26,10.78,0,10.01,8.82,15.99,8.91,16.05,3.19,2.06,4.1,6.31,2.04,9.5-1.31,2.03-3.52,3.14-5.77,3.14Z"/>
    <path class="cls-5" d="M265.34,221c-28.1,0-40.44-18.62-43.03-28.47-.97-3.67,1.22-7.42,4.89-8.39,3.61-.98,7.39,1.19,8.38,4.84,.27,.93,5.61,18.29,29.77,18.29,6.16,0,10.64-1.69,13.69-5.17,5.56-6.34,5.44-17.79,4.92-21.67-.5-3.75,2.13-7.21,5.88-7.72,3.74-.52,7.2,2.1,7.73,5.85,.11,.81,2.66,20.11-8.14,32.52-5.73,6.59-13.83,9.92-24.08,9.92Z"/>
    <path class="cls-5" d="M301.72,263.95c-18.63,0-25.31-29.29-26.01-32.63-.78-3.71,1.6-7.34,5.3-8.12,3.73-.74,7.35,1.59,8.13,5.3,1.88,8.88,7.44,21.72,12.57,21.72,8.64,0,14.63-13.79,14.69-13.93,1.46-3.49,5.47-5.13,8.97-3.71,3.49,1.45,5.17,5.44,3.73,8.95-.38,.91-9.4,22.42-27.39,22.42Z"/>
    <path class="cls-5" d="M272.3,305.66c-5.32,0-10.65-1.78-15.32-6.46-16.35-16.34-1.64-40.92-1.01-41.96,1.97-3.22,6.19-4.25,9.42-2.28,3.24,1.96,4.27,6.18,2.32,9.42-.1,.16-9.72,16.41-1.02,25.11,7.79,7.77,22.26-5.69,22.41-5.82,2.76-2.61,7.09-2.49,9.7,.25,2.61,2.74,2.51,7.07-.23,9.69-5.52,5.27-15.89,12.05-26.27,12.05Z"/>
    <path class="cls-5" d="M397.74,437.41h-122.57c-.94,0-1.7-.77-1.7-1.72s.76-1.72,1.7-1.72h122.57c.94,0,1.7,.77,1.7,1.72s-.76,1.72-1.7,1.72Z"/>
    <path class="cls-5" d="M397.74,455.55h-122.57c-.94,0-1.7-.77-1.7-1.72s.76-1.72,1.7-1.72h122.57c.94,0,1.7,.77,1.7,1.72s-.76,1.72-1.7,1.72Z"/>
    <path class="cls-5" d="M395.53,474.89h-118.14c-.94,0-1.7-.77-1.7-1.72s.76-1.72,1.7-1.72h118.14c.94,0,1.7,.77,1.7,1.72s-.76,1.72-1.7,1.72Z"/>
    <g class="cls-8">
      <rect class="cls-2" x="276.26" y="421.06" width="120.85" height="65.52"/>
      <rect class="cls-2" x="272.83" y="417.56" width="127.28" height="72.46"/>
      <rect class="cls-2" x="400.1" y="417.56" width=".55" height="72.46"/>
    </g>
  </g>
</svg>