<svg width="200" height="80" xmlns="http://www.w3.org/2000/svg" xmlns:xlink="http://www.w3.org/1999/xlink" viewBox="0 0 367.67 109.14">
  <defs>
    <style>
      .cls-1 {
        fill: #ffc72a;
      }

      .cls-2 {
        fill: #ffc116;
      }

      .cls-3 {
        clip-path: url(#clippath-2);
      }

      .cls-4 {
        clip-path: url(#clippath-1);
      }

      .cls-5 {
        fill: #606161;
      }

      .cls-6 {
        clip-path: url(#clippath);
      }

      .cls-7 {
        fill: none;
      }

      .cls-8 {
        clip-path: url(#clippath-3);
      }

      .cls-9 {
        fill: #231f20;
      }
    </style>
    <clipPath id="clippath">
      <path class="cls-7" d="M81.63,87.37h0c-.55,0-.99-.45-.99-1,0-.12,.05-12.58,.52-21.39,.03-.53,.08-1.05,.16-1.55-1.46,0-2.68-.11-3.25-.16-.55-.05-.94-.54-.89-1.09,.06-.54,.54-.95,1.09-.89,1.07,.11,2.29,.16,3.52,.13,.75-2.32,2.1-4.08,3.88-4.93,1.37-.66,2.77-.63,3.75,.08,.85,.61,1.26,1.66,1.11,2.88-.35,2.8-3.91,3.69-7.18,3.91-.1,.53-.17,1.1-.2,1.72-.47,8.76-.52,21.17-.52,21.29,0,.55-.45,.99-.99,.99Zm5.98-29.36c-.33,0-.71,.09-1.09,.28-.92,.44-1.9,1.42-2.57,3.01,2.44-.26,4.46-.9,4.6-2.09,.04-.34,.02-.79-.3-1.02-.16-.12-.39-.18-.65-.18Z"/>
    </clipPath>
    <clipPath id="clippath-1">
      <path class="cls-7" d="M94.38,89.25h-18.35V3.75h1.53c20.51,0,37.2,16.69,37.2,37.2,0,13.96-7.97,26.87-20.37,33.16v15.14Zm-15.29-3.06h12.24v-14l.87-.41c11.85-5.62,19.5-17.72,19.5-30.83,0-18.31-14.49-33.3-32.61-34.1V86.19Z"/>
    </clipPath>
    <clipPath id="clippath-2">
      <path class="cls-7" d="M107.77,42.68c-.8,0-1.48-.63-1.53-1.44-1.51-25.2-23.19-28.82-24.11-28.97-.83-.13-1.41-.91-1.28-1.74,.13-.83,.9-1.4,1.74-1.28,.25,.04,25.04,4.09,26.7,31.81,.05,.84-.59,1.57-1.44,1.62-.03,0-.06,0-.09,0Z"/>
    </clipPath>
    <clipPath id="clippath-3">
      <path class="cls-7" d="M65.97,109.14c-.19,0-2.29-.03-3.78-1.51-.94-.94-1.42-2.23-1.42-3.86v-10.68l.33-.05c.35-.05,21.24-.02,27.64,0h.38v10.83c0,.06,.13,2.13-1.31,3.67-.99,1.06-2.45,1.59-4.34,1.59h-17.49Zm-4.44-15.34v9.97c0,1.41,.4,2.52,1.19,3.31,1.29,1.28,3.21,1.29,3.25,1.29h17.48c1.67,0,2.94-.45,3.78-1.34,1.22-1.29,1.12-3.11,1.12-3.13v-10.09c-8.73-.01-24.27-.03-26.82,0Z"/>
    </clipPath>
  </defs>
  <g id="Layer_1-2" data-name="Layer 1">
    <g>
      <line class="cls-1" x1="31.11" y1="68.62" x2="16.03" y2="82.89"/>
      <path class="cls-1" d="M32.47,68.62c0,.36-.14,.72-.42,.98l-15.08,14.27c-.54,.51-1.4,.49-1.91-.05-.51-.54-.49-1.4,.05-1.91l15.08-14.27c.54-.51,1.4-.49,1.91,.05,.25,.26,.37,.6,.37,.93Z"/>
    </g>
    <path class="cls-1" d="M23.58,41.92c0,.75-.61,1.35-1.35,1.35H1.35c-.75,0-1.35-.61-1.35-1.35s.61-1.35,1.35-1.35H22.23c.75,0,1.35,.61,1.35,1.35Z"/>
    <g>
      <line class="cls-1" x1="31.11" y1="15.21" x2="16.6" y2="1.35"/>
      <path class="cls-1" d="M32.47,15.21c0,.34-.12,.67-.37,.93-.52,.54-1.37,.56-1.91,.04L15.67,2.33c-.54-.52-.56-1.37-.04-1.91,.52-.54,1.37-.56,1.91-.04l14.51,13.86c.28,.27,.42,.62,.42,.98Z"/>
    </g>
    <g class="cls-6">
      <rect class="cls-2" x="83.95" y="58.01" width="4.65" height="3.29"/>
      <rect class="cls-2" x="77.13" y="55.84" width=".05" height="31.53"/>
      <rect class="cls-2" x="77.18" y="55.84" width="13.38" height="31.53"/>
      <rect class="cls-2" x="90.56" y="55.84" width=".12" height="31.53"/>
    </g>
    <g>
      <path class="cls-9" d="M123.02,59.79V31.85h4.39c2.55,0,4.41,.16,5.59,.49,1.67,.44,3,1.27,3.99,2.47s1.48,2.62,1.48,4.25c0,1.06-.23,2.03-.67,2.9-.45,.87-1.18,1.68-2.19,2.44,1.7,.8,2.94,1.79,3.72,2.99,.78,1.2,1.18,2.61,1.18,4.25s-.41,3-1.22,4.29c-.81,1.29-1.86,2.26-3.14,2.9-1.28,.64-3.05,.96-5.3,.96h-7.83Zm5.32-22.87v5.89h1.16c1.3,0,2.26-.27,2.89-.82,.63-.54,.94-1.29,.94-2.22,0-.87-.3-1.57-.9-2.08-.6-.51-1.51-.77-2.73-.77h-1.37Zm0,10.64v7.16h1.33c2.21,0,3.7-.28,4.47-.84,.77-.56,1.15-1.37,1.15-2.43,0-1.2-.45-2.15-1.35-2.85-.9-.7-2.4-1.04-4.49-1.04h-1.1Z"/>
      <path class="cls-9" d="M145.95,31.85h5.63c3.09,0,5.28,.28,6.59,.83,1.31,.55,2.36,1.47,3.16,2.74,.8,1.28,1.2,2.79,1.2,4.54,0,1.84-.44,3.37-1.32,4.61-.88,1.23-2.21,2.17-3.98,2.8l6.62,12.42h-5.81l-6.28-11.83h-.49v11.83h-5.32V31.85Zm5.32,10.92h1.67c1.69,0,2.86-.22,3.49-.67s.96-1.18,.96-2.21c0-.61-.16-1.14-.47-1.59-.32-.45-.74-.78-1.27-.97-.53-.2-1.5-.3-2.92-.3h-1.46v5.74Z"/>
      <path class="cls-9" d="M167.77,31.85h5.28v27.94h-5.28V31.85Z"/>
      <path class="cls-9" d="M204.83,36.41l-3.75,3.7c-2.37-2.51-5.13-3.76-8.29-3.76-2.75,0-5.05,.91-6.91,2.74s-2.78,4.04-2.78,6.65,.96,4.98,2.89,6.86c1.93,1.87,4.3,2.81,7.13,2.81,1.84,0,3.39-.39,4.65-1.16s2.28-1.98,3.05-3.63h-8.09v-5h14.06l.04,1.18c0,2.44-.63,4.76-1.9,6.95-1.27,2.19-2.91,3.86-4.92,5.01-2.01,1.15-4.38,1.73-7.08,1.73-2.9,0-5.49-.63-7.76-1.89-2.27-1.26-4.07-3.05-5.39-5.38-1.32-2.33-1.98-4.84-1.98-7.54,0-3.7,1.22-6.91,3.67-9.65,2.9-3.25,6.67-4.88,11.32-4.88,2.43,0,4.7,.45,6.82,1.35,1.79,.76,3.53,2.06,5.24,3.91Z"/>
      <path class="cls-9" d="M211.69,31.85h5.39v10.54h9.33v-10.54h5.38v27.94h-5.38v-12.25h-9.33v12.25h-5.39V31.85Z"/>
      <path class="cls-9" d="M235.41,31.85h15.44v5.24h-5.09v22.7h-5.39v-22.7h-4.96v-5.24Z"/>
      <path class="cls-9" d="M265,31.85h5.28v27.94h-5.28V31.85Z"/>
      <path class="cls-9" d="M276.29,31.85h6.3c4.06,0,7.08,.5,9.05,1.51,1.97,1.01,3.6,2.64,4.88,4.91,1.28,2.27,1.92,4.91,1.92,7.94,0,2.15-.36,4.13-1.07,5.94s-1.7,3.3-2.96,4.49c-1.26,1.19-2.62,2.01-4.09,2.47-1.47,.46-4.01,.68-7.63,.68h-6.4V31.85Zm5.28,5.13v17.63h2.47c2.43,0,4.19-.28,5.29-.84,1.09-.56,1.99-1.5,2.69-2.81,.7-1.32,1.04-2.94,1.04-4.87,0-2.97-.83-5.27-2.49-6.9-1.49-1.47-3.89-2.21-7.2-2.21h-1.8Z"/>
      <path class="cls-9" d="M303.52,31.85h15.25v5.2h-9.97v5.05h9.97v5.11h-9.97v7.35h9.97v5.22h-15.25V31.85Z"/>
      <path class="cls-9" d="M332.26,31.85h5.39l10.75,27.94h-5.53l-2.19-5.76h-11.4l-2.27,5.76h-5.53l10.77-27.94Zm2.73,7.41l-3.75,9.59h7.47l-3.73-9.59Z"/>
      <path class="cls-9" d="M367.17,35.65l-3.94,3.48c-1.38-1.92-2.79-2.89-4.22-2.89-.7,0-1.27,.19-1.71,.56-.44,.37-.67,.79-.67,1.26s.16,.91,.48,1.33c.43,.56,1.73,1.75,3.9,3.59,2.03,1.7,3.26,2.77,3.69,3.21,1.08,1.09,1.84,2.13,2.29,3.12,.45,.99,.68,2.08,.68,3.26,0,2.29-.79,4.19-2.38,5.68-1.58,1.49-3.65,2.24-6.2,2.24-1.99,0-3.72-.49-5.2-1.46-1.48-.97-2.74-2.51-3.79-4.6l4.47-2.7c1.34,2.47,2.89,3.7,4.64,3.7,.91,0,1.68-.27,2.3-.8,.62-.53,.93-1.15,.93-1.84,0-.63-.23-1.27-.7-1.9-.47-.63-1.5-1.6-3.1-2.91-3.04-2.48-5.01-4.4-5.9-5.75-.89-1.35-1.33-2.69-1.33-4.04,0-1.94,.74-3.6,2.22-4.99,1.48-1.39,3.3-2.08,5.47-2.08,1.39,0,2.72,.32,3.98,.97,1.26,.65,2.63,1.82,4.1,3.53Z"/>
    </g>
    <g>
      <path class="cls-9" d="M131.54,67.2l-.85,.53c-.73-.97-1.73-1.46-3-1.46-1.01,0-1.86,.33-2.53,.98-.67,.65-1,1.44-1,2.38,0,.61,.15,1.18,.46,1.71,.31,.53,.73,.95,1.27,1.25,.54,.3,1.14,.44,1.81,.44,1.22,0,2.22-.49,3-1.46l.85,.56c-.4,.6-.93,1.06-1.6,1.39-.67,.33-1.43,.5-2.29,.5-1.32,0-2.41-.42-3.27-1.25-.87-.84-1.3-1.85-1.3-3.05,0-.81,.2-1.55,.61-2.25,.41-.69,.96-1.23,1.67-1.62,.71-.39,1.5-.58,2.38-.58,.55,0,1.08,.08,1.6,.25s.95,.39,1.3,.66c.36,.27,.66,.61,.91,1.03Z"/>
      <path class="cls-9" d="M139.1,65.25c1.28,0,2.35,.46,3.19,1.39,.77,.85,1.15,1.85,1.15,3.01s-.4,2.18-1.21,3.05-1.85,1.3-3.12,1.3-2.32-.43-3.13-1.3c-.81-.87-1.21-1.89-1.21-3.05s.38-2.15,1.15-3c.84-.93,1.91-1.4,3.2-1.4Zm0,1.05c-.89,0-1.66,.33-2.3,.99-.64,.66-.96,1.45-.96,2.39,0,.6,.15,1.16,.44,1.68,.29,.52,.69,.92,1.18,1.2,.5,.28,1.04,.42,1.64,.42s1.14-.14,1.64-.42c.5-.28,.89-.68,1.18-1.2,.29-.52,.44-1.08,.44-1.68,0-.93-.32-1.73-.96-2.39s-1.41-.99-2.29-.99Z"/>
      <path class="cls-9" d="M146.98,65.47h1.07v1.44c.37-.53,.76-.92,1.15-1.16,.54-.33,1.11-.49,1.71-.49,.4,0,.79,.08,1.15,.24,.36,.16,.66,.37,.89,.63,.23,.26,.43,.64,.6,1.13,.36-.65,.8-1.15,1.34-1.49s1.11-.51,1.72-.51c.57,0,1.08,.15,1.52,.44,.44,.29,.77,.7,.98,1.22,.21,.52,.32,1.3,.32,2.34v4.54h-1.09v-4.54c0-.89-.06-1.51-.19-1.84-.13-.33-.34-.6-.65-.81s-.67-.31-1.1-.31c-.52,0-.99,.15-1.42,.46-.43,.31-.74,.71-.94,1.22-.2,.51-.3,1.36-.3,2.56v3.26h-1.07v-4.26c0-1-.06-1.69-.19-2.05-.13-.36-.34-.65-.65-.86-.31-.22-.68-.32-1.11-.32-.49,0-.96,.15-1.39,.45-.43,.3-.75,.7-.96,1.2-.21,.51-.31,1.28-.31,2.32v3.53h-1.07v-8.32Z"/>
      <path class="cls-9" d="M163.24,65.47h1.07v1.44c.37-.53,.76-.92,1.15-1.16,.54-.33,1.11-.49,1.71-.49,.4,0,.79,.08,1.15,.24,.36,.16,.66,.37,.89,.63,.23,.26,.43,.64,.6,1.13,.36-.65,.8-1.15,1.34-1.49s1.11-.51,1.72-.51c.57,0,1.08,.15,1.52,.44,.44,.29,.77,.7,.98,1.22,.21,.52,.32,1.3,.32,2.34v4.54h-1.09v-4.54c0-.89-.06-1.51-.19-1.84-.13-.33-.34-.6-.65-.81s-.67-.31-1.1-.31c-.52,0-.99,.15-1.42,.46s-.74,.71-.94,1.22c-.2,.51-.3,1.36-.3,2.56v3.26h-1.07v-4.26c0-1-.06-1.69-.19-2.05-.13-.36-.34-.65-.65-.86-.31-.22-.68-.32-1.11-.32-.49,0-.96,.15-1.39,.45-.43,.3-.75,.7-.96,1.2-.21,.51-.31,1.28-.31,2.32v3.53h-1.07v-8.32Z"/>
      <path class="cls-9" d="M179.38,65.47h1.07v3.89c0,.95,.05,1.6,.15,1.96,.15,.51,.45,.91,.88,1.21,.43,.3,.95,.44,1.54,.44s1.1-.14,1.52-.43c.42-.29,.7-.67,.86-1.14,.11-.32,.16-1,.16-2.04v-3.89h1.09v4.09c0,1.15-.13,2.01-.4,2.59-.27,.58-.67,1.04-1.21,1.37-.54,.33-1.21,.49-2.02,.49s-1.49-.16-2.03-.49c-.54-.33-.95-.79-1.22-1.38-.27-.59-.4-1.48-.4-2.66v-4.01Z"/>
      <path class="cls-9" d="M190.61,65.47h1.07v1.49c.43-.57,.9-1,1.42-1.28s1.09-.42,1.7-.42,1.17,.16,1.66,.47c.48,.32,.84,.74,1.07,1.28s.34,1.37,.34,2.5v4.28h-1.07v-3.97c0-.96-.04-1.6-.12-1.92-.12-.55-.36-.97-.71-1.24-.35-.28-.81-.42-1.38-.42-.65,0-1.23,.21-1.74,.64-.51,.43-.85,.96-1.01,1.59-.1,.41-.15,1.17-.15,2.26v3.05h-1.07v-8.32Z"/>
      <path class="cls-9" d="M202.1,62.04c.24,0,.45,.09,.62,.26,.17,.17,.26,.38,.26,.63s-.09,.45-.26,.62c-.17,.17-.38,.26-.62,.26s-.44-.09-.62-.26c-.17-.17-.26-.38-.26-.62s.09-.45,.26-.63c.17-.17,.38-.26,.62-.26Zm-.53,3.43h1.07v8.32h-1.07v-8.32Z"/>
      <path class="cls-9" d="M214.51,67.2l-.85,.53c-.73-.97-1.73-1.46-3-1.46-1.01,0-1.86,.33-2.53,.98-.67,.65-1,1.44-1,2.38,0,.61,.15,1.18,.46,1.71,.31,.53,.73,.95,1.27,1.25s1.14,.44,1.81,.44c1.22,0,2.22-.49,3-1.46l.85,.56c-.4,.6-.93,1.06-1.6,1.39s-1.43,.5-2.29,.5c-1.32,0-2.41-.42-3.27-1.25s-1.3-1.85-1.3-3.05c0-.81,.2-1.55,.61-2.25,.41-.69,.96-1.23,1.67-1.62,.71-.39,1.5-.58,2.38-.58,.55,0,1.08,.08,1.6,.25,.51,.17,.95,.39,1.3,.66,.36,.27,.66,.61,.91,1.03Z"/>
      <path class="cls-9" d="M226.43,65.47v8.32h-1.06v-1.43c-.45,.55-.95,.96-1.51,1.23-.56,.28-1.17,.41-1.83,.41-1.18,0-2.18-.43-3.02-1.28s-1.25-1.89-1.25-3.12,.42-2.22,1.26-3.08,1.85-1.28,3.04-1.28c.68,0,1.3,.15,1.86,.44,.55,.29,1.04,.73,1.46,1.31v-1.53h1.06Zm-4.28,.82c-.6,0-1.15,.15-1.65,.44-.5,.29-.91,.7-1.2,1.23-.3,.53-.45,1.09-.45,1.68s.15,1.15,.45,1.68,.7,.95,1.21,1.25c.51,.3,1.05,.45,1.63,.45s1.14-.15,1.67-.44c.52-.3,.93-.7,1.21-1.2,.28-.5,.42-1.07,.42-1.7,0-.96-.32-1.77-.95-2.41-.63-.65-1.41-.97-2.34-.97Z"/>
      <path class="cls-9" d="M231.34,62.38h1.07v3.09h1.7v.93h-1.7v7.4h-1.07v-7.4h-1.46v-.93h1.46v-3.09Z"/>
      <path class="cls-9" d="M237.65,62.04c.24,0,.45,.09,.62,.26,.17,.17,.26,.38,.26,.63s-.09,.45-.26,.62c-.17,.17-.38,.26-.62,.26s-.44-.09-.62-.26c-.17-.17-.26-.38-.26-.62s.09-.45,.26-.63c.17-.17,.38-.26,.62-.26Zm-.53,3.43h1.07v8.32h-1.07v-8.32Z"/>
      <path class="cls-9" d="M245.92,65.25c1.28,0,2.35,.46,3.19,1.39,.77,.85,1.15,1.85,1.15,3.01s-.41,2.18-1.21,3.05c-.81,.87-1.85,1.3-3.12,1.3s-2.32-.43-3.13-1.3-1.21-1.89-1.21-3.05,.38-2.15,1.15-3c.84-.93,1.91-1.4,3.2-1.4Zm0,1.05c-.89,0-1.66,.33-2.3,.99-.64,.66-.96,1.45-.96,2.39,0,.6,.15,1.16,.44,1.68,.29,.52,.69,.92,1.18,1.2,.5,.28,1.04,.42,1.64,.42s1.14-.14,1.64-.42c.5-.28,.89-.68,1.18-1.2,.29-.52,.44-1.08,.44-1.68,0-.93-.32-1.73-.96-2.39s-1.41-.99-2.29-.99Z"/>
      <path class="cls-9" d="M253.81,65.47h1.07v1.49c.43-.57,.9-1,1.42-1.28,.52-.28,1.09-.42,1.7-.42s1.17,.16,1.66,.47c.48,.32,.84,.74,1.07,1.28s.34,1.37,.34,2.5v4.28h-1.07v-3.97c0-.96-.04-1.6-.12-1.92-.12-.55-.36-.97-.71-1.24-.35-.28-.81-.42-1.38-.42-.65,0-1.23,.21-1.74,.64-.51,.43-.85,.96-1.01,1.59-.1,.41-.15,1.17-.15,2.26v3.05h-1.07v-8.32Z"/>
      <path class="cls-9" d="M269.12,66.38l-.69,.71c-.57-.56-1.13-.83-1.68-.83-.35,0-.65,.11-.89,.34-.25,.23-.37,.5-.37,.8,0,.27,.1,.53,.31,.77,.2,.25,.63,.54,1.29,.88,.8,.41,1.34,.81,1.63,1.19,.28,.39,.42,.82,.42,1.31,0,.68-.24,1.26-.72,1.74s-1.08,.71-1.8,.71c-.48,0-.94-.1-1.38-.31-.44-.21-.8-.5-1.08-.86l.67-.76c.55,.62,1.13,.93,1.74,.93,.43,0,.79-.14,1.1-.41,.3-.28,.45-.6,.45-.97,0-.31-.1-.58-.3-.82-.2-.23-.65-.53-1.35-.89-.75-.39-1.26-.77-1.53-1.15-.27-.38-.41-.81-.41-1.29,0-.63,.22-1.16,.65-1.58,.43-.42,.98-.63,1.64-.63,.77,0,1.54,.37,2.31,1.12Z"/>
    </g>
    <g class="cls-4">
      <rect class="cls-2" x="79.08" y="6.84" width="32.61" height="79.35"/>
      <rect class="cls-2" x="76.02" y="3.75" width="38.73" height="85.5"/>
    </g>
    <g class="cls-3">
      <rect class="cls-2" x="80.72" y="9.14" width=".11" height="33.55"/>
      <rect class="cls-2" x="80.83" y="9.14" width="28.46" height="33.55"/>
      <rect class="cls-2" x="109.3" y="9.14" width=".05" height="33.55"/>
    </g>
    <path class="cls-5" d="M73.42,89.25h-18.14v-14.91c-5.5-2.79-7.29-7.85-7.83-10.08-3.19-.77-5.48-2.3-6.79-4.56-1.53-2.63-1.3-5.53-.98-7.13-3.11-1.99-5.02-4.54-5.69-7.59-1.08-4.89,1.43-9.53,2.45-11.15-1.1-4.96-.59-8.85,1.51-11.56,1.71-2.21,4.06-3.06,5.59-3.38,.03-2.25,.53-6.58,3.51-9.89,2.52-2.8,6.21-4.22,10.95-4.22s8.39,1.41,11.08,4.18c4.52,4.66,4.37,11.46,4.36,11.74V89.25Zm-15.08-3.06h12.03V20.65c0-.1,.11-5.87-3.51-9.58-2.09-2.15-5.08-3.24-8.87-3.24s-6.75,1.07-8.66,3.19c-3.21,3.55-2.71,8.98-2.7,9.04l.17,1.66-1.67,.03s-3.01,.1-4.78,2.42c-1.57,2.06-1.84,5.29-.78,9.6l.17,.69-.42,.58s-3.35,4.72-2.33,9.32c.55,2.47,2.3,4.55,5.21,6.17l1.12,.63-.42,1.21s-1.08,3.26,.43,5.83c.99,1.68,2.91,2.78,5.72,3.29l1.1,.2,.14,1.12c.03,.26,.9,6.5,7.14,9.18l.93,.4v13.83Z"/>
    <path class="cls-5" d="M49.92,30.33c-.25,0-.51-.06-.75-.2-4.62-2.59-5.56-9.44-5.6-9.73-.11-.84,.48-1.6,1.31-1.71,.84-.1,1.61,.48,1.72,1.31,0,.06,.79,5.62,4.06,7.46,.74,.41,1,1.35,.59,2.08-.28,.5-.8,.78-1.34,.78Z"/>
    <path class="cls-5" d="M38.06,35.65c-.39,0-.78-.15-1.08-.45-.6-.6-.6-1.56,0-2.16,.84-.84,3.75-3.53,6.23-3,.83,.17,1.35,.98,1.18,1.81-.17,.82-.99,1.36-1.81,1.18-.5-.1-2.22,.97-3.44,2.17-.3,.3-.69,.45-1.08,.45Z"/>
    <path class="cls-5" d="M46.44,54.75c-2.16,0-5.26-1.34-5.62-1.5-.77-.34-1.12-1.24-.78-2.02,.34-.77,1.25-1.12,2.02-.78,1.16,.51,3.43,1.33,4.48,1.24,.88-.06,1.56,.6,1.61,1.45,.04,.84-.6,1.56-1.45,1.61-.08,0-.16,0-.25,0Z"/>
    <path class="cls-5" d="M48.75,64.5c-.8,0-1.48-.62-1.53-1.43-.02-.3-.38-7.29,5.15-11.11,.69-.48,1.65-.31,2.13,.39,.48,.69,.31,1.65-.39,2.13-4.09,2.83-3.84,8.36-3.83,8.41,.05,.84-.6,1.56-1.44,1.61-.03,0-.06,0-.09,0Z"/>
    <path class="cls-5" d="M59.8,75.22c-1.81,0-3.24-.29-3.61-.45-.77-.34-1.12-1.25-.78-2.02,.33-.74,1.19-1.09,1.94-.81,.56,.15,4.58,.71,7.34-.87,.73-.42,1.67-.16,2.09,.57,.42,.73,.16,1.67-.57,2.09-2.04,1.17-4.45,1.5-6.41,1.5Z"/>
    <path class="cls-5" d="M64.08,21.74c-.08,0-.17,0-.25-.02-.83-.14-1.4-.92-1.26-1.76,.09-.56,.13-2.24-.7-3.21-.53-.62-1.37-.92-2.57-.92-4.18,0-4.5,4-4.52,4.45-.04,.84-.74,1.48-1.6,1.45-.84-.04-1.49-.76-1.45-1.6,.13-2.55,1.87-7.36,7.58-7.36,2.13,0,3.78,.68,4.91,2,1.89,2.23,1.44,5.34,1.38,5.68-.12,.75-.77,1.28-1.51,1.28Z"/>
    <path class="cls-5" d="M57.54,39.85c-.1,0-.2-.01-.31-.03-1.91-.39-5.52-2.47-5.52-7.55s4.72-7.09,7.21-7.38c.86-.1,1.6,.5,1.7,1.34,.1,.84-.5,1.6-1.34,1.7-.47,.06-4.51,.68-4.51,4.34s2.77,4.49,3.09,4.56c.82,.19,1.34,1,1.16,1.82-.15,.72-.78,1.21-1.49,1.21Z"/>
    <path class="cls-5" d="M45.09,48.03c-.28,0-.57-.08-.83-.24-.14-.09-3.38-2.23-3.38-6.14,0-3.47,3.42-5.03,5.45-5.41,.82-.15,1.63,.39,1.78,1.22,.15,.83-.39,1.63-1.22,1.78-.06,.01-2.95,.6-2.95,2.4,0,2.23,1.96,3.56,1.99,3.57,.71,.46,.91,1.41,.45,2.12-.29,.45-.78,.7-1.29,.7Z"/>
    <path class="cls-5" d="M59.1,49.23c-6.26,0-9.01-4.15-9.58-6.34-.22-.82,.27-1.65,1.09-1.87,.8-.22,1.65,.26,1.87,1.08,.06,.21,1.25,4.07,6.63,4.07,1.37,0,2.37-.38,3.05-1.15,1.24-1.41,1.21-3.96,1.1-4.83-.11-.83,.47-1.61,1.31-1.72,.83-.12,1.6,.47,1.72,1.3,.03,.18,.59,4.48-1.81,7.24-1.28,1.47-3.08,2.21-5.36,2.21Z"/>
    <path class="cls-5" d="M67.2,58.79c-4.15,0-5.64-6.52-5.79-7.27-.17-.83,.36-1.64,1.18-1.81,.83-.17,1.64,.35,1.81,1.18,.42,1.98,1.66,4.84,2.8,4.84,1.92,0,3.26-3.07,3.27-3.1,.32-.78,1.22-1.14,2-.83,.78,.32,1.15,1.21,.83,1.99-.08,.2-2.09,4.99-6.1,4.99Z"/>
    <path class="cls-5" d="M60.65,68.08c-1.18,0-2.37-.4-3.41-1.44-3.64-3.64-.36-9.11-.22-9.35,.44-.72,1.38-.95,2.1-.51,.72,.44,.95,1.38,.52,2.1-.02,.04-2.17,3.65-.23,5.59,1.74,1.73,4.96-1.27,4.99-1.3,.61-.58,1.58-.56,2.16,.06,.58,.61,.56,1.58-.05,2.16-1.23,1.17-3.54,2.68-5.85,2.68Z"/>
    <path class="cls-5" d="M88.59,97.43h-27.3c-.21,0-.38-.17-.38-.38s.17-.38,.38-.38h27.3c.21,0,.38,.17,.38,.38s-.17,.38-.38,.38Z"/>
    <path class="cls-5" d="M88.59,101.47h-27.3c-.21,0-.38-.17-.38-.38s.17-.38,.38-.38h27.3c.21,0,.38,.17,.38,.38s-.17,.38-.38,.38Z"/>
    <path class="cls-5" d="M88.1,105.78h-26.31c-.21,0-.38-.17-.38-.38s.17-.38,.38-.38h26.31c.21,0,.38,.17,.38,.38s-.17,.38-.38,.38Z"/>
    <g class="cls-8">
      <rect class="cls-2" x="61.53" y="93.79" width="26.92" height="14.59"/>
      <rect class="cls-2" x="60.77" y="93.01" width="28.35" height="16.14"/>
      <rect class="cls-2" x="89.12" y="93.01" width=".12" height="16.14"/>
    </g>
    <rect class="cls-9" x="123.33" y="76.02" width="145.8" height=".12"/>
  </g>
</svg>